<svg id="eOig9zVa0d21" xmlns="http://www.w3.org/2000/svg" xmlns:xlink="http://www.w3.org/1999/xlink" viewBox="0 0 1342 755" shape-rendering="geometricPrecision" text-rendering="geometricPrecision"><rect width="1342" height="755" rx="0" ry="0" fill="#bfc2c6" stroke-width="0"/><rect width="1391.099057" height="74.075472" rx="0" ry="0" transform="matrix(1 0 0 1.671691-24.549527 315.58435)" fill="#f4f3ee" stroke-width="0"/><rect width="167.452148" height="706.841277" rx="0" ry="0" transform="translate(587.273928 24.079362)" fill="#f4f3ee" stroke-width="0"/><rect width="167.452148" height="706.841277" rx="0" ry="0" transform="translate(836.84203 24.079361)" fill="#f4f3ee" stroke-width="0"/><rect width="167.452148" height="706.841277" rx="0" ry="0" transform="translate(1086.410132 24.079361)" fill="#f4f3ee" stroke-width="0"/><rect width="167.452148" height="706.841277" rx="0" ry="0" transform="translate(337.705826 24.079362)" fill="#f4f3ee" stroke-width="0"/><rect width="167.452148" height="706.841277" rx="0" ry="0" transform="translate(88.137724 24.079361)" fill="#f4f3ee" stroke-width="0"/><rect width="47.107117" height="291.504988" rx="0" ry="0" transform="translate(88.137725 24.079362)" fill="#436e3c" stroke-width="0" stroke-miterlimit="10"/><rect width="47.107117" height="291.504988" rx="0" ry="0" transform="translate(208.482755 24.079361)" fill="#436e3c" stroke-width="0"/><rect width="47.107117" height="291.504988" rx="0" ry="0" transform="translate(337.705826 24.079362)" fill="#436e3c" stroke-width="0"/><rect width="47.107117" height="291.504988" rx="0" ry="0" transform="translate(458.050857 24.079361)" fill="#436e3c" stroke-width="0"/><rect width="47.107117" height="291.504988" rx="0" ry="0" transform="translate(587.273928 24.079362)" fill="#436e3c" stroke-width="0"/><rect width="47.107117" height="291.504988" rx="0" ry="0" transform="translate(707.618959 24.079361)" fill="#436e3c" stroke-width="0"/><rect width="47.107117" height="291.504988" rx="0" ry="0" transform="translate(836.84203 24.079362)" fill="#436e3c" stroke-width="0"/><rect width="47.107117" height="291.504988" rx="0" ry="0" transform="translate(957.187061 24.079361)" fill="#436e3c" stroke-width="0"/><rect width="47.107117" height="291.504988" rx="0" ry="0" transform="translate(1086.410132 24.079361)" fill="#436e3c" stroke-width="0"/><rect width="47.107117" height="291.504988" rx="0" ry="0" transform="translate(1206.755163 24.079362)" fill="#436e3c" stroke-width="0"/><rect width="47.107117" height="291.504988" rx="0" ry="0" transform="translate(88.137725 439.415651)" fill="#436e3c" stroke-width="0"/><rect width="47.107117" height="291.504988" rx="0" ry="0" transform="translate(208.482755 439.415651)" fill="#436e3c" stroke-width="0"/><rect width="47.107117" height="291.504988" rx="0" ry="0" transform="translate(337.705826 439.415651)" fill="#436e3c" stroke-width="0"/><rect width="47.107117" height="291.504988" rx="0" ry="0" transform="translate(458.050857 439.415651)" fill="#436e3c" stroke-width="0"/><rect width="47.107117" height="291.504988" rx="0" ry="0" transform="translate(587.273928 439.415651)" fill="#436e3c" stroke-width="0"/><rect width="47.107117" height="291.504988" rx="0" ry="0" transform="translate(707.618959 439.415651)" fill="#436e3c" stroke-width="0"/><rect width="47.107117" height="291.504988" rx="0" ry="0" transform="translate(836.84203 439.415651)" fill="#436e3c" stroke-width="0"/><rect width="47.107117" height="291.504988" rx="0" ry="0" transform="translate(957.187061 439.41565)" fill="#436e3c" stroke-width="0"/><rect width="47.107117" height="291.504988" rx="0" ry="0" transform="translate(1086.410132 439.415651)" fill="#436e3c" stroke-width="0"/><rect width="47.107117" height="291.504988" rx="0" ry="0" transform="translate(1206.755163 439.41565)" fill="#436e3c" stroke-width="0"/><rect width="7.826956" height="291.504988" rx="0" ry="0" transform="translate(192.828843 24.079362)" fill="#a18c53" stroke-width="0"/><rect width="7.826956" height="291.504988" rx="0" ry="0" transform="translate(192.828843 439.41565)" fill="#a18c53" stroke-width="0"/><rect width="7.826956" height="291.504988" rx="0" ry="0" transform="translate(442.396945 439.41565)" fill="#a18c53" stroke-width="0"/><rect width="7.826956" height="291.504988" rx="0" ry="0" transform="translate(1191.10125 439.41565)" fill="#a18c53" stroke-width="0"/><rect width="7.826956" height="291.504988" rx="0" ry="0" transform="translate(1141.344206 439.41565)" fill="#a18c53" stroke-width="0"/><rect width="7.826956" height="291.504988" rx="0" ry="0" transform="translate(1191.10125 24.079361)" fill="#a18c53" stroke-width="0"/><rect width="7.826956" height="291.504988" rx="0" ry="0" transform="translate(1141.344206 24.079361)" fill="#a18c53" stroke-width="0"/><rect width="7.826956" height="291.504988" rx="0" ry="0" transform="translate(941.66642 439.415651)" fill="#a18c53" stroke-width="0"/><rect width="7.826956" height="291.504988" rx="0" ry="0" transform="translate(891.909375 439.415651)" fill="#a18c53" stroke-width="0"/><rect width="7.826956" height="291.504988" rx="0" ry="0" transform="translate(692.098318 439.415651)" fill="#a18c53" stroke-width="0"/><rect width="7.826956" height="291.504988" rx="0" ry="0" transform="translate(642.341273 439.415651)" fill="#a18c53" stroke-width="0"/><rect width="7.826956" height="291.504988" rx="0" ry="0" transform="translate(642.341273 24.079362)" fill="#a18c53" stroke-width="0"/><rect width="7.826956" height="291.504988" rx="0" ry="0" transform="translate(692.098318 24.079363)" fill="#a18c53" stroke-width="0"/><rect width="7.826956" height="291.504988" rx="0" ry="0" transform="translate(891.909375 24.079362)" fill="#a18c53" stroke-width="0"/><rect width="7.826956" height="291.504988" rx="0" ry="0" transform="translate(941.66642 24.079362)" fill="#a18c53" stroke-width="0"/><rect width="7.826956" height="291.504988" rx="0" ry="0" transform="translate(442.396945 24.079361)" fill="#a18c53" stroke-width="0"/><rect width="7.826956" height="291.504988" rx="0" ry="0" transform="translate(392.6399 24.079361)" fill="#a18c53" stroke-width="0"/><rect width="7.826956" height="291.504988" rx="0" ry="0" transform="translate(392.6399 439.41565)" fill="#a18c53" stroke-width="0"/><rect width="7.826956" height="291.504988" rx="0" ry="0" transform="translate(143.071798 439.41565)" fill="#a18c53" stroke-width="0"/><rect width="7.826956" height="291.504988" rx="0" ry="0" transform="translate(143.071798 24.079361)" fill="#a18c53" stroke-width="0"/></svg>
